<?xml version="1.0" encoding="UTF-8" standalone="no"?>
<svg width="1024" height="512" viewBox="0 0 1024 512" xmlns="http://www.w3.org/2000/svg">
  <defs>
    <linearGradient id="darkGradient" x1="0%" y1="0%" x2="100%" y2="100%">
      <stop offset="0%" style="stop-color:#0A192F;stop-opacity:1" />
      <stop offset="100%" style="stop-color:#112240;stop-opacity:1" />
    </linearGradient>
    <filter id="noise" x="0%" y="0%" width="100%" height="100%">
      <feTurbulence type="fractalNoise" baseFrequency="0.65" numOctaves="3" stitchTiles="stitch" />
      <feColorMatrix type="matrix" values="0 0 0 0 0 0 0 0 0 0 0 0 0 0 0 0 0 0 0.1 0" />
      <feBlend mode="overlay" in2="SourceGraphic" result="noisy" />
    </filter>
  </defs>
  
  <!-- Base ocean layer -->
  <rect width="1024" height="512" fill="url(#darkGradient)" />
  
  <!-- Continents layer -->
  <g opacity="0.8" filter="url(#noise)">
    <!-- North America -->
    <path d="M150,100 Q200,120 220,150 Q240,180 230,210 Q220,240 180,270 Q140,300 170,330 L140,340 L120,320 L90,310 L70,280 L50,260 L40,220 L60,190 L80,170 L110,150 Z" fill="#112240" />
    
    <!-- South America -->
    <path d="M220,300 Q230,320 240,340 Q250,360 230,380 Q210,400 200,430 Q190,460 210,480 L170,470 L150,450 L140,420 L150,390 L170,360 L190,330 Z" fill="#112240" />
    
    <!-- Europe -->
    <path d="M450,120 Q470,140 460,160 Q450,180 470,200 Q490,220 480,240 L450,250 L420,240 L400,220 L390,200 L400,180 L420,160 Z" fill="#112240" />
    
    <!-- Africa -->
    <path d="M450,250 Q470,270 490,290 Q510,310 500,340 Q490,370 470,390 Q450,410 430,400 L410,380 L400,350 L410,320 L430,290 Z" fill="#112240" />
    
    <!-- Asia -->
    <path d="M550,120 Q580,140 600,160 Q620,180 650,190 Q680,200 700,220 Q720,240 710,270 Q700,300 680,320 Q660,340 630,330 Q600,320 580,300 Q560,280 540,260 Q520,240 510,210 L530,180 L550,150 Z" fill="#112240" />
    
    <!-- Australia -->
    <path d="M750,350 Q770,360 790,370 Q810,380 800,400 Q790,420 770,430 Q750,440 730,430 L720,410 L730,390 Z" fill="#112240" />
  </g>
  
  <!-- Grid lines -->
  <g opacity="0.15">
    <!-- Longitude lines -->
    <line x1="0" y1="256" x2="1024" y2="256" stroke="#64FFDA" stroke-width="1" />
    <line x1="256" y1="0" x2="256" y2="512" stroke="#64FFDA" stroke-width="1" />
    <line x1="512" y1="0" x2="512" y2="512" stroke="#64FFDA" stroke-width="1" />
    <line x1="768" y1="0" x2="768" y2="512" stroke="#64FFDA" stroke-width="1" />
    
    <!-- Latitude lines -->
    <line x1="0" y1="128" x2="1024" y2="128" stroke="#64FFDA" stroke-width="1" />
    <line x1="0" y1="384" x2="1024" y2="384" stroke="#64FFDA" stroke-width="1" />
  </g>
  
  <!-- Subtle dots for cities -->
  <g opacity="0.3">
    <circle cx="180" cy="170" r="2" fill="#FFB74D" /> <!-- Seattle -->
    <circle cx="170" cy="190" r="2" fill="#64FFDA" /> <!-- San Francisco -->
    <circle cx="210" cy="190" r="2" fill="#FF4B4B" /> <!-- New York -->
    <circle cx="450" cy="170" r="2" fill="#4285F4" /> <!-- London -->
    <circle cx="550" cy="200" r="2" fill="#EA4335" /> <!-- Tokyo -->
    <circle cx="680" cy="300" r="2" fill="#FBBC05" /> <!-- Sydney -->
  </g>
</svg>