<?xml version="1.0" encoding="UTF-8" standalone="no"?>
<svg width="800" height="600" xmlns="http://www.w3.org/2000/svg">
  <!-- Background gradient -->
  <defs>
    <linearGradient id="bg-gradient" x1="0%" y1="0%" x2="100%" y2="100%">
      <stop offset="0%" stop-color="#0A2540" />
      <stop offset="100%" stop-color="#1A3D5C" />
    </linearGradient>
    
    <!-- Credit card pattern -->
    <pattern id="card-pattern" x="0" y="0" width="20" height="20" patternUnits="userSpaceOnUse">
      <rect width="10" height="10" fill="#4F566B" />
      <rect x="10" y="0" width="10" height="10" fill="#3C4257" />
      <rect x="0" y="10" width="10" height="10" fill="#3C4257" />
      <rect x="10" y="10" width="10" height="10" fill="#4F566B" />
    </pattern>
  </defs>
  
  <!-- Background -->
  <rect width="800" height="600" fill="url(#bg-gradient)" />
  
  <!-- Grid pattern -->
  <path d="M0,100 h800 M0,200 h800 M0,300 h800 M0,400 h800 M0,500 h800" stroke="#1A3D5C" stroke-width="1" />
  <path d="M100,0 v600 M200,0 v600 M300,0 v600 M400,0 v600 M500,0 v600 M600,0 v600 M700,0 v600" stroke="#1A3D5C" stroke-width="1" />
  
  <!-- Credit card outlines -->
  <rect x="150" y="150" width="280" height="180" rx="10" fill="#635BFF" />
  <rect x="370" y="270" width="280" height="180" rx="10" fill="url(#card-pattern)" />
  
  <!-- Lock icon circle -->
  <circle cx="400" cy="300" r="80" fill="#00D924" fill-opacity="0.2" />
  <circle cx="400" cy="300" r="60" fill="#00D924" fill-opacity="0.4" />
  
  <!-- Security shield -->
  <path d="M400,250 l40,20 v50 c0,20 -20,40 -40,50 c-20,-10 -40,-30 -40,-50 v-50 z" fill="#ffffff" fill-opacity="0.9" />
  <path d="M400,260 l30,15 v40 c0,15 -15,30 -30,40 c-15,-10 -30,-25 -30,-40 v-40 z" fill="#00D924" />
  
  <!-- Stripe logo elements -->
  <rect x="200" y="180" width="180" height="30" rx="4" fill="#ffffff" />
  <rect x="200" y="230" width="140" height="20" rx="4" fill="#ffffff" fill-opacity="0.6" />
  <rect x="200" y="270" width="100" height="20" rx="4" fill="#ffffff" fill-opacity="0.6" />
  
  <!-- Digital data paths -->
  <path d="M480,340 c50,-60 100,-20 150,-80" stroke="#635BFF" stroke-width="3" stroke-dasharray="8,8" fill="none" />
  <path d="M200,360 c60,-20 120,-60 180,-20" stroke="#00D924" stroke-width="3" stroke-dasharray="4,6" fill="none" />
  
  <!-- Animated circles representing data points -->
  <circle cx="230" cy="330" r="8" fill="#635BFF" />
  <circle cx="350" cy="320" r="6" fill="#00D924" />
  <circle cx="480" cy="340" r="8" fill="#635BFF" />
  <circle cx="530" cy="320" r="6" fill="#00D924" />
  <circle cx="630" cy="340" r="5" fill="#635BFF" />
</svg>